<svg width="189" height="38" viewBox="0 0 189 38" fill="none" xmlns="http://www.w3.org/2000/svg">
<g clip-path="url(#clip0_670_315)">
<path d="M34.5326 14.5489C34.4337 14.2575 34.2516 14.0015 34.0088 13.8124C33.7661 13.6233 33.4732 13.5095 33.1665 13.485L24.1941 12.772L20.3115 4.17733C20.1878 3.90052 19.9867 3.6654 19.7324 3.50036C19.4781 3.33533 19.1814 3.24742 18.8782 3.24725C18.5751 3.24709 18.2783 3.33467 18.0238 3.49943C17.7693 3.66419 17.5679 3.89908 17.444 4.17576L13.5613 12.772L4.58894 13.485C4.28748 13.5088 3.99929 13.6191 3.75883 13.8024C3.51838 13.9858 3.33585 14.2346 3.23308 14.519C3.13031 14.8034 3.11165 15.1114 3.17933 15.4061C3.24702 15.7009 3.39818 15.9699 3.61474 16.1809L10.2453 22.6446L7.90028 32.799C7.82907 33.1063 7.85189 33.428 7.96578 33.7222C8.07966 34.0165 8.27935 34.2697 8.53894 34.449C8.79852 34.6284 9.10601 34.7255 9.42151 34.7279C9.73701 34.7303 10.0459 34.6379 10.3082 34.4625L18.8777 28.7495L27.4472 34.4625C27.7153 34.6405 28.0315 34.7321 28.3532 34.7251C28.6749 34.718 28.9867 34.6126 29.2467 34.423C29.5067 34.2335 29.7025 33.9688 29.8076 33.6647C29.9127 33.3606 29.9222 33.0315 29.8347 32.7219L26.9562 22.6494L34.0951 16.225C34.5625 15.8032 34.734 15.1453 34.5326 14.5489Z" fill="#F3CD03"/>
<path d="M72.3054 14.5486C72.2065 14.2572 72.0244 14.0012 71.7816 13.8121C71.5389 13.623 71.2461 13.5092 70.9393 13.4846L61.9669 12.7717L58.0843 4.17703C57.9607 3.90021 57.7595 3.6651 57.5052 3.50006C57.2509 3.33502 56.9542 3.24711 56.6511 3.24695C56.3479 3.24678 56.0511 3.33436 55.7966 3.49912C55.5421 3.66388 55.3407 3.89877 55.2168 4.17546L51.3342 12.7717L42.3618 13.4846C42.0603 13.5085 41.7721 13.6188 41.5317 13.8021C41.2912 13.9855 41.1087 14.2343 41.0059 14.5187C40.9031 14.8031 40.8845 15.1111 40.9522 15.4058C41.0198 15.7006 41.171 15.9695 41.3876 16.1806L48.0181 22.6443L45.6731 32.7987C45.6019 33.106 45.6247 33.4277 45.7386 33.7219C45.8525 34.0162 46.0522 34.2694 46.3118 34.4487C46.5713 34.6281 46.8788 34.7252 47.1943 34.7276C47.5098 34.73 47.8188 34.6376 48.0811 34.4622L56.6506 28.7492L65.22 34.4622C65.4881 34.6402 65.8043 34.7318 66.126 34.7248C66.4477 34.7177 66.7595 34.6123 67.0196 34.4227C67.2796 34.2332 67.4753 33.9685 67.5804 33.6644C67.6855 33.3603 67.695 33.0312 67.6075 32.7215L64.729 22.649L71.8679 16.2247C72.3353 15.8029 72.5069 15.145 72.3054 14.5486Z" fill="#F3CD03"/>
<path d="M110.076 14.5486C109.977 14.2572 109.795 14.0012 109.552 13.8121C109.309 13.623 109.016 13.5092 108.71 13.4846L99.7373 12.7717L95.8547 4.17703C95.731 3.90021 95.5299 3.6651 95.2756 3.50006C95.0213 3.33502 94.7246 3.24711 94.4214 3.24695C94.1183 3.24678 93.8215 3.33436 93.567 3.49912C93.3125 3.66388 93.1111 3.89877 92.9872 4.17546L89.1045 12.7717L80.1322 13.4846C79.8307 13.5085 79.5425 13.6188 79.302 13.8021C79.0616 13.9855 78.8791 14.2343 78.7763 14.5187C78.6735 14.8031 78.6549 15.1111 78.7225 15.4058C78.7902 15.7006 78.9414 15.9695 79.158 16.1806L85.7885 22.6443L83.4435 32.7987C83.3723 33.106 83.3951 33.4277 83.509 33.7219C83.6229 34.0162 83.8226 34.2694 84.0822 34.4487C84.3417 34.6281 84.6492 34.7252 84.9647 34.7276C85.2802 34.73 85.5892 34.6376 85.8514 34.4622L94.4209 28.7492L102.99 34.4622C103.259 34.6402 103.575 34.7318 103.896 34.7248C104.218 34.7177 104.53 34.6123 104.79 34.4227C105.05 34.2332 105.246 33.9685 105.351 33.6644C105.456 33.3603 105.465 33.0312 105.378 32.7215L102.499 22.649L109.638 16.2247C110.106 15.8029 110.277 15.145 110.076 14.5486Z" fill="#F3CD03"/>
<path d="M147.849 14.5486C147.75 14.2572 147.568 14.0012 147.325 13.8121C147.082 13.623 146.789 13.5092 146.483 13.4846L137.51 12.7717L133.628 4.17703C133.504 3.90021 133.303 3.6651 133.048 3.50006C132.794 3.33502 132.497 3.24711 132.194 3.24695C131.891 3.24678 131.594 3.33436 131.34 3.49912C131.085 3.66388 130.884 3.89877 130.76 4.17546L126.877 12.7717L117.905 13.4846C117.604 13.5085 117.315 13.6188 117.075 13.8021C116.834 13.9855 116.652 14.2343 116.549 14.5187C116.446 14.8031 116.428 15.1111 116.495 15.4058C116.563 15.7006 116.714 15.9695 116.931 16.1806L123.561 22.6443L121.216 32.7987C121.145 33.106 121.168 33.4277 121.282 33.7219C121.396 34.0162 121.595 34.2694 121.855 34.4487C122.115 34.6281 122.422 34.7252 122.738 34.7276C123.053 34.73 123.362 34.6376 123.624 34.4622L132.194 28.7492L140.763 34.4622C141.031 34.6402 141.347 34.7318 141.669 34.7248C141.991 34.7177 142.303 34.6123 142.563 34.4227C142.823 34.2332 143.019 33.9685 143.124 33.6644C143.229 33.3603 143.238 33.0312 143.151 32.7215L140.272 22.649L147.411 16.2247C147.879 15.8029 148.05 15.145 147.849 14.5486Z" fill="#F3CD03"/>
<path d="M161.333 22.6446L158.988 32.799C158.916 33.1065 158.937 33.4287 159.051 33.7236C159.164 34.0185 159.364 34.2723 159.624 34.452C159.884 34.6316 160.192 34.7288 160.508 34.7306C160.824 34.7325 161.133 34.6391 161.395 34.4625L169.964 28.7495L178.534 34.4625C178.802 34.6405 179.118 34.7321 179.44 34.7251C179.761 34.718 180.073 34.6126 180.333 34.423C180.593 34.2335 180.789 33.9688 180.894 33.6647C180.999 33.3606 181.009 33.0315 180.921 32.7219L178.043 22.6494L185.181 16.225C185.41 16.0191 185.573 15.7507 185.651 15.453C185.729 15.1554 185.718 14.8414 185.619 14.55C185.52 14.2587 185.338 14.0026 185.095 13.8136C184.852 13.6246 184.56 13.5109 184.253 13.4865L175.281 12.772L171.398 4.17734C171.274 3.90059 171.073 3.66559 170.818 3.50069C170.564 3.33579 170.267 3.24805 169.964 3.24805C169.661 3.24805 169.364 3.33579 169.11 3.50069C168.855 3.66559 168.654 3.90059 168.53 4.17734L164.648 12.772L155.675 13.485C155.374 13.5088 155.086 13.6191 154.845 13.8024C154.605 13.9858 154.422 14.2346 154.32 14.519C154.217 14.8034 154.198 15.1114 154.266 15.4061C154.333 15.7009 154.485 15.9699 154.701 16.1809L161.333 22.6446ZM165.823 15.8363C166.104 15.8141 166.374 15.7168 166.605 15.5546C166.835 15.3923 167.017 15.171 167.133 14.914L169.964 8.64859L172.795 14.914C172.911 15.171 173.093 15.3923 173.324 15.5546C173.554 15.7168 173.824 15.8141 174.105 15.8363L180.356 16.332L175.208 20.9654C174.761 21.3683 174.583 21.9883 174.747 22.5675L176.719 29.4688L170.839 25.5483C170.581 25.3751 170.277 25.2826 169.967 25.2826C169.656 25.2826 169.352 25.3751 169.094 25.5483L162.95 29.645L164.602 22.4904C164.663 22.2273 164.655 21.953 164.579 21.6939C164.502 21.4348 164.361 21.1996 164.168 21.011L159.386 16.3493L165.823 15.8363Z" fill="#F3CD03"/>
</g>
<defs>
<clipPath id="clip0_670_315">
<rect width="188.859" height="37.7719" fill="white" transform="translate(-0.00976562 0.102844)"/>
</clipPath>
</defs>
</svg>
